<svg width="64" height="64" viewBox="0 0 64 64" fill="none" xmlns="http://www.w3.org/2000/svg">
  <rect x="4" y="4" width="56" height="56" rx="18" fill="#FFFFFF"/>
  <rect x="5" y="5" width="54" height="54" rx="17" stroke="#E7E8EE" stroke-width="1.2"/>
  <path d="M18.5 45V19.5" stroke="#1E3A8A" stroke-width="1.9" stroke-linecap="round"/>
  <path d="M18.5 19.5H25.6C29.5 19.5 31.7 21.3 31.7 24.5C31.7 27.8 29.4 29.5 25.6 29.5H18.5" stroke="#1E3A8A" stroke-width="1.9" stroke-linecap="round" stroke-linejoin="round"/>
  <path d="M26.3 29.9L31.8 45" stroke="#1E3A8A" stroke-width="1.9" stroke-linecap="round"/>
  <path d="M34.9 19.5V45" stroke="#1E3A8A" stroke-width="1.9" stroke-linecap="round"/>
  <path d="M35.1 31.4L44.2 19.5" stroke="#1E3A8A" stroke-width="1.9" stroke-linecap="round"/>
  <path d="M35.1 31.4L44.8 45" stroke="#1E3A8A" stroke-width="1.9" stroke-linecap="round"/>
  <path d="M46.5 18.4C48 20.2 48.1 22.8 46.9 24.8" stroke="#C5A15D" stroke-width="1.3" stroke-linecap="round"/>
  <path d="M15.8 48.5C22.1 52.6 30.1 54.2 38.1 53.1" stroke="#B0B7C7" stroke-width="1.1" stroke-linecap="round"/>
</svg>
